<?xml version="1.0" standalone="no"?>
<!DOCTYPE svg PUBLIC "-//W3C//DTD SVG 20010904//EN"
 "http://www.w3.org/TR/2001/REC-SVG-20010904/DTD/svg10.dtd">
<svg version="1.0" xmlns="http://www.w3.org/2000/svg"
 width="211.000000pt" height="239.000000pt" viewBox="0 0 211.000000 239.000000"
 preserveAspectRatio="xMidYMid meet">

<g transform="translate(0.000000,239.000000) scale(0.100000,-0.100000)"
fill="#000000" stroke="none">
<path d="M0 1195 l0 -1195 1055 0 1055 0 0 1195 0 1195 -1055 0 -1055 0 0
-1195z m1797 218 c-2 -727 -2 -728 -25 -793 -54 -158 -184 -259 -457 -356 -75
-27 -90 -29 -230 -28 -135 0 -162 4 -270 32 -197 52 -353 142 -424 246 -17 24
-39 70 -50 104 -20 59 -21 81 -21 784 0 398 0 726 0 731 0 4 333 7 740 7 l739
0 -2 -727z"/>
<path d="M350 1412 c0 -775 0 -770 65 -869 82 -123 283 -226 523 -268 166 -29
261 -19 425 46 188 75 272 131 332 222 65 99 65 94 65 869 l0 698 -705 0 -705
-1 0 -697z m176 567 l11 -64 7 50 c11 72 16 87 29 82 14 -5 12 -26 -9 -124
-20 -90 -38 -96 -54 -15 -7 31 -15 74 -20 94 -4 20 -5 40 -2 43 15 15 28 -7
38 -66z m152 -17 c2 -64 6 -82 17 -82 12 0 15 17 15 86 0 64 3 85 13 82 16 -6
22 -165 6 -184 -14 -17 -53 -18 -67 -1 -6 7 -11 48 -12 92 -2 101 -2 97 13 93
8 -3 13 -32 15 -86z m152 3 l0 -85 30 0 c20 0 30 -5 30 -15 0 -11 -12 -15 -45
-15 l-45 0 0 93 c0 52 3 97 7 100 18 18 23 0 23 -78z m178 68 c2 -8 -5 -13
-17 -13 -20 0 -21 -6 -21 -85 0 -69 -3 -85 -15 -85 -12 0 -15 16 -15 85 0 69
-3 85 -15 85 -8 0 -15 7 -15 16 0 12 10 14 47 12 26 -2 48 -9 51 -15z m80 -71
c2 -63 6 -82 17 -82 11 0 15 19 17 82 2 54 7 83 16 86 9 3 12 -19 12 -85 0
-94 -8 -113 -45 -113 -37 0 -45 19 -45 113 0 66 3 88 13 85 8 -3 13 -32 15
-86z m200 72 c24 -16 29 -53 12 -84 -7 -14 -6 -31 4 -60 12 -37 12 -40 -4 -40
-11 0 -21 13 -29 40 -15 51 -28 51 -27 0 1 -30 -3 -40 -14 -40 -13 0 -16 16
-18 91 -1 51 1 96 4 100 8 14 48 10 72 -7z m170 -1 c2 -9 -7 -13 -27 -13 -28
0 -31 -3 -31 -30 0 -25 4 -30 25 -30 16 0 25 -6 25 -15 0 -9 -9 -15 -25 -15
-20 0 -25 -5 -25 -25 0 -21 5 -25 30 -25 20 0 30 -5 30 -15 0 -11 -12 -15 -45
-15 l-45 0 0 93 c0 52 3 97 7 101 12 11 76 2 81 -11z m130 1 c23 -16 30 -44
11 -44 -7 0 -18 8 -25 18 -10 13 -15 14 -25 5 -16 -16 -4 -41 25 -53 53 -20
43 -110 -12 -110 -30 0 -52 16 -52 37 0 7 7 13 15 13 8 0 15 -4 15 -10 0 -5 9
-10 20 -10 32 0 27 48 -5 56 -46 11 -58 61 -25 94 24 24 29 24 58 4z m82 -731
c-1 -514 -6 -605 -36 -669 -76 -161 -402 -290 -652 -256 -270 37 -453 131
-513 264 l-24 53 -3 548 -3 547 616 0 615 0 0 -487z"/>
<path d="M1240 1991 c0 -25 4 -31 21 -31 16 0 20 5 17 27 -2 17 -10 29 -20 31
-14 3 -18 -3 -18 -27z"/>
<path d="M473 1754 c-2 -6 -3 -247 -1 -535 l3 -524 24 -48 c45 -92 148 -159
326 -213 81 -25 105 -28 240 -28 166 0 197 7 360 83 101 47 147 87 182 159
l28 57 0 528 0 527 -579 3 c-407 1 -580 -1 -583 -9z m500 -83 c19 -11 42 -21
52 -21 17 0 17 -1 2 -17 -14 -16 -14 -25 -2 -83 8 -36 14 -80 15 -99 0 -53 8
-34 28 72 l19 97 -21 14 c-21 15 -21 15 2 15 13 1 38 11 55 23 33 24 104 33
125 16 28 -24 11 -88 -24 -88 -13 0 -24 -4 -24 -10 0 -15 27 -12 61 6 30 15
30 15 19 -5 -6 -12 -15 -21 -21 -21 -6 0 -8 -4 -4 -9 7 -12 -27 -31 -55 -31
-27 0 -24 -17 16 -104 26 -58 26 -58 63 -51 67 12 159 61 181 97 21 35 25 64
11 87 -7 11 -13 11 -32 -3 -30 -21 -63 -20 -100 1 -36 22 -41 35 -22 63 28 39
76 52 144 39 32 -6 77 -9 99 -6 37 5 39 4 29 -15 -6 -10 -17 -22 -24 -25 -12
-4 -12 -10 3 -36 15 -29 17 -76 20 -444 2 -227 0 -413 -4 -413 -3 0 -19 9 -35
21 l-29 20 0 300 c0 198 -3 298 -10 294 -6 -4 -10 -112 -10 -291 0 -156 -3
-284 -8 -284 -4 0 -18 7 -30 16 -22 15 -22 18 -22 265 0 156 -4 249 -10 249
-6 0 -11 -91 -12 -240 l-3 -240 -32 22 -33 23 0 203 c0 128 -4 202 -10 202 -6
0 -10 -72 -10 -195 l0 -196 -30 23 -30 22 0 163 c0 102 -4 163 -10 163 -6 0
-10 -59 -10 -156 l0 -157 -32 25 -33 26 -3 126 c-1 73 -7 126 -12 126 -6 0
-10 -12 -10 -27 0 -16 -7 -66 -15 -113 l-15 -85 82 -82 c72 -72 79 -83 58 -83
-23 0 -22 -2 15 -40 42 -43 71 -50 115 -26 29 17 60 5 60 -22 0 -10 -3 -13 -8
-6 -5 7 -20 7 -52 -1 l-45 -11 53 -27 c51 -27 58 -39 46 -71 -8 -21 -24 -21
-24 0 0 8 -4 13 -8 10 -5 -3 -22 8 -37 24 -16 17 -32 30 -37 30 -4 0 -8 -25
-8 -55 0 -43 -4 -56 -19 -65 -11 -5 -22 -10 -24 -10 -2 0 -2 32 -1 70 4 75 -3
83 -42 55 -12 -8 -24 -11 -28 -8 -3 3 -6 -2 -6 -12 0 -15 -2 -15 -15 -5 -9 7
-15 23 -13 34 2 16 13 23 51 30 43 7 66 26 33 26 -8 0 -28 12 -45 26 l-31 26
0 -29 -1 -28 -19 23 c-11 13 -29 36 -40 50 l-21 27 5 -72 c10 -124 49 -186
121 -195 l30 -3 -27 -27 c-29 -30 -62 -35 -103 -16 -23 10 -29 8 -61 -23 l-36
-34 -28 34 c-27 31 -30 33 -61 22 -50 -17 -78 -13 -107 16 l-26 26 44 11 c33
8 50 20 67 44 25 39 46 125 41 178 l-3 36 -35 -49 c-34 -47 -35 -48 -38 -20
l-3 28 -28 -23 c-16 -13 -37 -28 -47 -35 -16 -9 -12 -12 34 -18 45 -7 52 -11
52 -30 0 -12 -7 -28 -15 -35 -12 -10 -15 -10 -15 2 0 12 -51 38 -75 38 -4 0
-5 -22 -2 -50 4 -33 2 -50 -5 -50 -7 0 -6 -6 2 -15 17 -21 7 -29 -19 -15 -17
9 -21 20 -21 65 0 30 -4 55 -8 55 -5 0 -21 -13 -37 -30 -15 -16 -32 -27 -37
-24 -4 3 -8 -2 -8 -10 0 -21 -16 -21 -24 0 -12 32 -5 44 47 71 l52 27 -45 11
c-32 8 -47 8 -52 1 -5 -7 -8 -4 -8 6 0 27 31 39 60 22 44 -24 76 -17 114 23
33 36 34 38 15 43 -18 4 -10 16 61 84 l82 78 -16 87 c-9 47 -16 98 -16 114 0
15 -4 27 -10 27 -6 0 -10 -48 -10 -124 0 -123 0 -125 -26 -145 -15 -12 -31
-21 -35 -21 -5 0 -9 68 -9 150 0 84 -4 150 -9 150 -5 0 -10 -72 -11 -162 l-1
-163 -27 -21 -27 -22 -3 194 c-1 118 -6 194 -12 194 -6 0 -10 -77 -10 -202 l0
-203 -33 -23 -32 -22 -5 242 c-3 134 -7 239 -8 233 -2 -5 -3 -117 -3 -247 l0
-238 -26 -20 c-14 -11 -30 -20 -34 -20 -5 0 -9 128 -9 284 0 179 -4 287 -10
291 -7 4 -10 -96 -10 -294 l0 -300 -29 -20 c-16 -12 -32 -21 -35 -21 -3 0 -4
186 -3 413 2 364 4 416 19 443 16 29 16 31 -3 42 -36 23 -22 37 39 38 31 1 83
3 114 5 53 4 60 2 88 -27 35 -34 33 -52 -9 -77 -36 -21 -70 -22 -98 -2 -18 13
-22 13 -33 -1 -23 -27 4 -89 53 -123 38 -26 131 -61 162 -61 12 0 75 125 75
148 0 7 -9 12 -19 12 -30 0 -51 11 -51 26 0 8 -4 14 -10 14 -5 0 -14 9 -20 21
-11 20 -11 20 19 5 34 -18 65 -21 56 -6 -3 6 -14 10 -25 10 -29 0 -43 63 -18
88 17 17 81 8 121 -17z"/>
</g>
</svg>
